HIERARCHY
ROOT Hips
{
 OFFSET 0.000000 0.000000 0.000000
 CHANNELS 6 Xposition Yposition Zposition Yrotation Xrotation Zrotation
 JOINT Chest
 {
  OFFSET 0.000000 11.395451 -0.039534
  CHANNELS 3 Yrotation Xrotation Zrotation
  JOINT Chest2
  {
   OFFSET 0.000000 9.398669 0.071813
   CHANNELS 3 Yrotation Xrotation Zrotation
   JOINT Chest3
   {
    OFFSET 0.000000 8.489801 0.000000
    CHANNELS 3 Yrotation Xrotation Zrotation
    JOINT Chest4
    {
     OFFSET 0.000000 8.489801 0.000000
     CHANNELS 3 Yrotation Xrotation Zrotation
     JOINT Neck
     {
      OFFSET 0.000000 12.404889 0.000000
      CHANNELS 3 Yrotation Xrotation Zrotation
      JOINT Head
      {
       OFFSET 0.000000 8.903270 0.092239
       CHANNELS 3 Yrotation Xrotation Zrotation
       End Site
       {
        OFFSET 0.000000 17.592497 0.007158
       }
      }
     }
     JOINT RightCollar
     {
      OFFSET -3.196775 6.966722 0.000000
      CHANNELS 3 Yrotation Xrotation Zrotation
      JOINT RightShoulder
      {
       OFFSET -15.955896 0.000000 0.000000
       CHANNELS 3 Yrotation Xrotation Zrotation
       JOINT RightElbow
       {
        OFFSET -24.792472 0.000000 0.000000
        CHANNELS 3 Yrotation Xrotation Zrotation
        JOINT RightWrist
        {
         OFFSET -20.900115 0.000000 0.025002
         CHANNELS 3 Yrotation Xrotation Zrotation
         End Site
         {
          OFFSET -16.056692 0.000000 0.000000
         }
        }
       }
      }
     }
     JOINT LeftCollar
     {
      OFFSET 3.196775 6.966722 0.000000
      CHANNELS 3 Yrotation Xrotation Zrotation
      JOINT LeftShoulder
      {
       OFFSET 15.955896 0.000000 0.000000
       CHANNELS 3 Yrotation Xrotation Zrotation
       JOINT LeftElbow
       {
        OFFSET 24.792472 0.000000 0.000000
        CHANNELS 3 Yrotation Xrotation Zrotation
        JOINT LeftWrist
        {
         OFFSET 20.900115 0.000000 0.025002
         CHANNELS 3 Yrotation Xrotation Zrotation
         End Site
         {
          OFFSET 16.056692 0.000000 0.000000
         }
        }
       }
      }
     }
    }
   }
  }
 }
 JOINT RightHip
 {
  OFFSET -9.568995 0.193718 0.019767
  CHANNELS 3 Yrotation Xrotation Zrotation
  JOINT RightKnee
  {
   OFFSET 0.000000 -56.649296 0.015402
   CHANNELS 3 Yrotation Xrotation Zrotation
   JOINT RightAnkle
   {
    OFFSET 0.000000 -41.365147 0.021264
    CHANNELS 3 Yrotation Xrotation Zrotation
    JOINT RightToe
    {
     OFFSET 0.000000 -7.465940 17.672538
     CHANNELS 3 Yrotation Xrotation Zrotation
     End Site
     {
      OFFSET 0.000000 -1.736315 7.837145
     }
    }
   }
  }
 }
 JOINT LeftHip
 {
  OFFSET 9.568995 0.193718 0.019767
  CHANNELS 3 Yrotation Xrotation Zrotation
  JOINT LeftKnee
  {
   OFFSET 0.000000 -56.649296 0.015402
   CHANNELS 3 Yrotation Xrotation Zrotation
   JOINT LeftAnkle
   {
    OFFSET 0.000000 -41.365147 0.021264
    CHANNELS 3 Yrotation Xrotation Zrotation
    JOINT LeftToe
    {
     OFFSET 0.000000 -7.465940 17.672538
     CHANNELS 3 Yrotation Xrotation Zrotation
     End Site
     {
      OFFSET 0.000000 -1.736315 7.837145
     }
    }
   }
  }
 }
}
MOTION
Frames: 15
Frame Time: 0.016667
-21.925340 104.835376 515.485523 -48.304533 12.675580 -3.494911 -1.007488 6.296555 1.887902 -0.472710 2.794341 0.851443 -0.472701 2.794328 0.851437 -0.358345 2.095084 0.640610 -9.078664 10.390647 2.555132 -18.682704 -15.868364 8.988328 -0.217509 17.907841 4.254719 18.098487 -30.877301 43.569768 49.709426 -40.902295 17.957498 -7.969538 -18.501113 10.264852 -3.487651 16.190635 -6.161816 -11.951198 -30.966304 -34.012826 -17.569770 -60.142092 -61.251229 15.060835 -20.189113 7.155134 -19.056921 -30.626245 9.724643 -4.804098 40.156421 -6.437727 -4.112668 -12.622333 4.200313 -0.027459 0.251464 -0.413379 27.564535 -28.788431 -9.689622 -3.200563 16.936163 -1.166330 0.311817 -2.982101 6.979769 -0.000000 -0.000000 0.000000
-21.797515 104.865369 515.470851 -49.080439 11.902545 -3.525731 -1.137545 6.338325 1.843091 -0.529986 2.812505 0.833419 -0.529986 2.812505 0.833419 -0.401249 2.108663 0.627380 -10.106711 10.507533 2.827923 -20.747630 -15.415674 9.917186 -0.529237 17.570475 4.228602 17.475225 -30.851128 44.619192 49.858857 -40.915265 18.038724 -8.463880 -18.152720 10.221060 -3.206089 15.627942 -6.121315 -11.766968 -30.713830 -33.987125 -16.954562 -60.146585 -62.165303 15.437534 -20.163768 7.564008 -19.435925 -29.052159 9.477630 -4.396973 41.680643 -6.554421 -4.463469 -12.818058 3.952080 0.000000 0.000000 0.000000 27.404283 -28.117987 -9.095125 -2.884084 16.813120 -1.223825 0.742036 -2.973111 6.955967 0.000000 -0.000000 0.000000
-21.644496 104.869351 515.443493 -49.789186 11.181967 -3.540197 -1.256936 6.329038 1.812950 -0.582559 2.807947 0.821666 -0.582585 2.807920 0.821672 -0.440648 2.105144 0.618814 -11.199985 10.658302 3.089077 -22.914391 -14.867439 10.828151 -0.886917 17.089190 4.301521 16.895053 -30.417011 45.411927 50.074110 -41.122954 18.100506 -8.886949 -17.834001 10.060795 -3.057513 15.572714 -6.015008 -11.755353 -31.046942 -33.897011 -16.121580 -60.037000 -63.159764 15.796406 -20.107915 7.930748 -18.956993 -27.707508 8.575822 -5.213990 43.171076 -6.622075 -5.102794 -12.970330 3.318172 0.130243 -0.693427 1.427598 27.137596 -27.579207 -8.521926 -2.380314 16.842502 -1.240112 1.118814 -3.037054 6.919075 0.000000 0.000000 0.000000
-21.479692 104.853282 515.403713 -50.463202 10.491164 -3.531502 -1.377841 6.299561 1.781436 -0.635684 2.794444 0.809258 -0.635718 2.794400 0.809264 -0.480421 2.094934 0.609741 -12.334443 10.821587 3.349225 -25.144183 -14.264615 11.733632 -1.291888 16.563990 4.421820 16.391899 -29.782474 45.981523 50.319596 -41.447023 18.169396 -9.250417 -17.561320 9.825648 -2.988160 15.791993 -5.864276 -11.916384 -31.673423 -33.700692 -15.166780 -59.882762 -64.199690 16.121240 -20.061012 8.268110 -17.989682 -26.460953 7.275022 -6.763017 44.589921 -6.624023 -5.896081 -13.031052 2.457523 0.326610 -1.683567 3.510015 26.790329 -27.114980 -7.964124 -1.785788 16.964535 -1.238756 1.506464 -3.143228 6.870250 0.000000 -0.000000 0.000000
-21.285775 104.818339 515.385421 -51.131441 9.776356 -3.470319 -1.563193 6.316242 1.734405 -0.717303 2.801366 0.790945 -0.717303 2.801366 0.790945 -0.541499 2.100104 0.596382 -13.377471 10.951630 3.615055 -27.199129 -13.718897 12.604878 -1.722523 16.099268 4.420766 16.048566 -29.214946 46.372451 50.540742 -41.766626 18.303244 -9.539383 -17.408229 9.574412 -2.826060 15.871230 -5.700598 -12.444480 -32.011525 -33.234262 -14.157631 -59.840118 -65.248640 16.288926 -20.121790 8.590864 -17.239472 -25.159098 5.751530 -8.569960 45.789832 -6.477542 -6.573165 -12.838929 1.323735 0.495121 -3.015441 5.765158 26.473678 -26.587587 -7.493568 -1.305043 17.062214 -1.232518 1.985082 -3.232120 6.836481 0.000000 -0.000000 0.000000
-21.036861 104.751221 515.465433 -51.729777 8.990122 -3.299125 -1.880074 6.413743 1.669699 -0.857314 2.843870 0.766892 -0.857288 2.843942 0.766884 -0.646387 2.131943 0.579034 -14.291998 11.018783 3.903852 -29.026849 -13.291363 13.471986 -2.154987 15.863800 4.159009 15.945711 -28.926308 46.550963 50.732841 -42.055915 18.483711 -9.756382 -17.424711 9.320116 -2.431084 15.612568 -5.533115 -13.550895 -31.710086 -32.423443 -13.083450 -59.982828 -66.327255 16.167154 -20.364129 8.935651 -16.905910 -23.761440 3.660987 -10.433192 46.874827 -5.754127 -6.995667 -12.246194 -0.418564 0.573398 -4.942208 8.290290 26.069224 -25.896997 -7.165474 -1.074274 17.097256 -1.223153 2.739397 -3.303959 6.834249 0.000000 0.000000 0.000000
-20.758833 104.665229 515.566933 -52.325491 8.181984 -3.075655 -2.262546 6.554510 1.582805 -1.026255 2.905477 0.734267 -1.026241 2.905549 0.734259 -0.772999 2.177994 0.555455 -15.111344 11.056300 4.211113 -30.682109 -12.918469 14.336531 -2.608314 15.674031 3.773356 16.000401 -28.714925 46.575820 50.899625 -42.342201 18.728061 -9.904886 -17.562016 9.050290 -1.936750 15.218185 -5.340431 -15.010770 -31.104444 -31.399808 -11.952125 -60.240170 -67.426494 15.878287 -20.703939 9.276720 -16.800943 -22.342003 1.325273 -12.525119 47.849681 -4.874163 -7.366411 -11.511106 -2.499798 0.547287 -7.108808 11.110387 25.698869 -25.148355 -6.932000 -0.957446 17.108427 -1.209076 3.584640 -3.358637 6.847017 -0.000000 0.000000 -0.000000
-20.512003 104.601441 515.493377 -53.141118 7.442945 -2.938362 -2.573167 6.696975 1.457565 -1.162685 2.968331 0.683856 -1.162685 2.968331 0.683856 -0.875144 2.224961 0.518431 -15.807213 11.116537 4.514564 -32.089843 -12.524704 15.134643 -3.112730 15.111357 3.529440 16.045550 -28.218244 46.627565 50.998214 -42.584586 19.150335 -9.973293 -17.748108 8.786108 -1.579959 14.871890 -5.102052 -16.378888 -30.635123 -30.285358 -10.855121 -60.552288 -68.464843 15.682959 -21.005452 9.529067 -17.001672 -20.944312 -0.141025 -15.004609 48.273020 -5.028760 -7.832655 -10.999915 -4.065806 0.444802 -8.735639 13.567493 25.827104 -24.514740 -6.689692 -0.751098 17.093666 -1.198036 4.046457 -3.336206 6.854920 0.000000 -0.000000 -0.000000
-20.365018 104.579075 515.089432 -54.184540 6.811121 -2.982162 -2.792382 6.830300 1.281283 -1.257678 3.028076 0.609613 -1.257679 3.028139 0.609634 -0.946064 2.269900 0.463371 -16.364620 11.243700 4.835867 -33.218772 -12.033076 15.886239 -3.731269 13.799467 3.629831 16.017022 -27.099570 46.763917 50.954041 -42.727505 19.929084 -9.942506 -17.975913 8.545967 -1.453436 14.705681 -4.755531 -17.608859 -30.438455 -28.946862 -9.785143 -60.985156 -69.415968 15.694245 -21.225535 9.613045 -17.579045 -19.440299 0.052776 -18.381597 47.555225 -7.149776 -8.334651 -10.748648 -4.610375 0.260428 -9.732482 15.234948 26.836617 -24.103952 -6.372985 -0.381395 17.080413 -1.208661 3.651843 -3.186508 6.873263 -0.000000 0.000000 -0.000000
-20.249231 104.578913 514.510433 -55.443045 6.243174 -3.107470 -2.938360 6.963888 1.069602 -1.319546 3.088532 0.518679 -1.319551 3.088683 0.518702 -0.992050 2.315499 0.395624 -16.797329 11.401696 5.152984 -34.098454 -11.515932 16.566914 -4.401815 12.139200 3.929520 15.997090 -25.691886 46.875094 50.835280 -42.827027 20.890296 -9.834602 -18.256613 8.312051 -1.469213 14.591151 -4.370194 -18.756744 -30.339888 -27.477867 -8.746914 -61.472681 -70.301632 15.797651 -21.410546 9.599525 -18.383331 -17.895919 1.043559 -21.896807 45.954014 -9.916929 -8.835010 -10.580658 -4.637345 0.047495 -10.282763 16.449161 28.329854 -23.819213 -6.012594 0.078384 17.043728 -1.220972 2.873948 -2.959724 6.884027 0.000000 -0.000000 0.000000
-20.019009 104.584380 514.025840 -57.106860 5.710055 -3.154970 -2.929835 7.087598 0.853894 -1.312648 3.144622 0.423584 -1.312648 3.144622 0.423584 -0.986421 2.357571 0.324370 -17.120664 11.514830 5.378923 -34.750476 -11.138314 17.051936 -4.950795 10.872039 4.147179 16.021844 -24.634862 46.916689 50.808668 -43.010270 21.623330 -9.696305 -18.544593 8.052598 -1.593467 14.312091 -4.119738 -19.557835 -30.346894 -26.288900 -7.858243 -61.757139 -71.101094 15.921349 -21.566269 9.621752 -19.183338 -16.682342 1.485645 -24.127516 44.418815 -11.472280 -9.452260 -10.511314 -4.776301 -0.006282 -10.078387 17.548230 29.600257 -23.510828 -5.648099 0.610420 16.898864 -1.186821 2.656985 -2.747288 6.823939 -0.000000 -0.000000 0.000000
-19.583485 104.589265 513.784488 -59.305686 5.211054 -3.041642 -2.680178 7.203785 0.648802 -1.198806 3.197564 0.329428 -1.198782 3.197383 0.329416 -0.900566 2.397297 0.253269 -17.343559 11.545643 5.478511 -35.192584 -10.980179 17.298053 -5.314636 10.324873 4.092733 16.045079 -24.219734 46.910713 50.958707 -43.377245 21.956660 -9.534763 -18.839345 7.738365 -1.855038 13.683595 -4.086707 -19.901457 -30.531131 -25.554903 -7.144944 -61.643676 -71.827732 16.049765 -21.699667 9.751449 -19.972738 -16.081649 0.648679 -24.417778 43.628585 -10.957864 -10.353401 -10.625176 -5.447983 0.262307 -8.718092 18.714471 30.429980 -23.078482 -5.382957 1.137683 16.593268 -1.055791 3.460876 -2.587825 6.675752 0.000000 0.000000 0.000000
-19.033526 104.599779 513.637543 -61.911992 4.758038 -2.842445 -2.277173 7.310868 0.442017 -1.016869 3.246866 0.231969 -1.016837 3.246759 0.231961 -0.763640 2.434635 0.179327 -17.454388 11.521006 5.495693 -35.412836 -10.983643 17.374903 -5.556004 10.150608 3.901513 16.095241 -24.158161 46.889432 51.203382 -43.827695 22.061706 -9.339845 -19.140380 7.398928 -2.208016 12.874286 -4.163305 -19.910608 -30.857439 -25.076625 -6.577381 -61.328707 -72.476529 16.205877 -21.808160 9.914751 -20.791060 -15.929721 -0.679466 -23.719524 43.130981 -9.565928 -11.355487 -10.924041 -6.209366 0.721314 -6.627299 19.565930 31.045534 -22.604352 -5.140155 1.735668 16.178025 -0.871565 4.825062 -2.437654 6.465840 0.000000 0.000000 0.000000
-18.496092 104.617980 513.407958 -64.731197 4.341810 -2.634390 -1.901163 7.390902 0.224691 -0.846736 3.283908 0.129986 -0.846736 3.283908 0.129986 -0.635577 2.462757 0.102017 -17.437848 11.457472 5.464781 -35.390864 -11.113084 17.335147 -5.673731 10.066755 3.749507 16.304367 -24.219473 46.859885 51.465038 -44.188686 22.039765 -9.132469 -19.401435 7.092538 -2.511709 12.195615 -4.241290 -19.671285 -31.196973 -24.712670 -6.201162 -61.141338 -72.986154 16.376509 -21.882151 10.030496 -21.524564 -15.918878 -1.539697 -23.290773 42.326653 -8.826354 -12.073586 -11.264067 -6.395621 1.057812 -4.757919 19.665291 31.410694 -22.189316 -4.696224 2.616078 15.717592 -0.730378 6.312609 -2.265791 6.202693 0.000000 -0.000000 -0.000000
-18.009035 104.655115 512.993280 -67.805961 3.969911 -2.460210 -1.586431 7.440549 -0.016369 -0.703264 3.306748 0.018228 -0.703248 3.306622 0.018229 -0.527378 2.479868 0.017477 -17.241551 11.345022 5.392386 -35.034086 -11.400120 17.176154 -5.604243 10.068302 3.713797 16.780244 -24.417565 46.813656 51.744636 -44.389083 21.851745 -8.892060 -19.622241 6.851341 -2.740773 11.766283 -4.298980 -19.140264 -31.528504 -24.419044 -6.086402 -61.240418 -73.283035 16.569269 -21.901094 10.073811 -22.043229 -15.858006 -1.389778 -23.746710 40.653968 -9.555171 -12.295295 -11.331030 -5.710725 1.074437 -3.683286 19.144141 31.361239 -21.899512 -3.871589 3.997702 15.226297 -0.666886 7.876324 -2.029550 5.869318 -0.000000 -0.000000 0.000000
